<svg id="visual" viewBox="0 0 500 500" width="500" height="500" xmlns="http://www.w3.org/2000/svg" xmlns:xlink="http://www.w3.org/1999/xlink" version="1.1"><rect x="0" y="0" width="500" height="500" fill="#083254"></rect><g transform="translate(-77.1151928014016 -0.15732926317843976)"><path d="M264.9 -316.5C356.6 -238.7 453.6 -167.9 500.5 -64.2C547.4 39.5 544.3 176 475.9 256.2C407.5 336.4 273.7 360.4 148.9 403.4C24.1 446.4 -91.8 508.4 -178.5 480.9C-265.1 453.4 -322.7 336.5 -352.2 230.1C-381.7 123.7 -383.2 27.9 -369.5 -67.9C-355.9 -163.7 -327.1 -259.6 -263 -342.3C-198.8 -425 -99.4 -494.5 -6.4 -486.8C86.6 -479.2 173.1 -394.3 264.9 -316.5" fill="#060506"></path></g></svg>