<svg width="500" height="500" viewBox="0 0 500 500" fill="none" xmlns="http://www.w3.org/2000/svg">
<path fill-rule="evenodd" clip-rule="evenodd" d="M274.617 0.376799C338.488 3.06549 405.673 24.095 444.671 67.878C480.729 108.36 456.501 165.843 466.801 216.143C475.081 256.581 505.986 292.452 498.973 333.07C491.205 378.068 466.436 421.011 426.34 450.505C384.345 481.396 328.723 507.352 274.617 498.102C222.176 489.137 205.84 430.344 161.036 405.151C112.013 377.587 26.5462 392.694 4.1383 346.017C-17.8131 300.291 54.0262 260.124 68.4094 212.206C84.3419 159.127 51.2281 95.0019 92.0808 53.0354C134.405 9.55736 208.938 -2.38803 274.617 0.376799Z" fill="#25282B"/>
</svg>
